<svg xmlns="http://www.w3.org/2000/svg" xmlns:xlink="http://www.w3.org/1999/xlink" width="705.709" height="624.857" viewBox="0 0 705.709 624.857">
  <defs>
    <clipPath id="clip-path">
      <rect id="Rectangle_3" data-name="Rectangle 3" width="705.709" height="624.857" fill="none"/>
    </clipPath>
  </defs>
  <g id="Group_3" data-name="Group 3" clip-path="url(#clip-path)">
    <path id="Path_3" data-name="Path 3" d="M220.393,46.29Q155.931,44.944,91.47,43.627c-8.837-.173-12.363,3.539-11.878,13.244,1.757,35.186,3.791,70.357,5.664,105.539,1.3,24.453,2.473,48.911,3.775,73.364.429,8.07-1.808,11.572-9.557,13.562q-15.227,3.911-30.549,7.448c-11.908,2.74-16.474-.777-16.654-12.87-.437-29.239-.674-58.482-1.157-87.719Q29.981,87.607,28.641,19.026c-.038-2-.065-4-.026-6C28.8,3.523,32.581-.308,41.866.019q26.6.936,53.189,2.138Q155.336,4.9,215.608,7.775q94.349,4.359,188.7,8.669c24.465,1.115,48.938,2.061,73.4,3.232,11.832.566,15.187,8.064,9.545,18.352-5.764,10.51-13.5,13.893-25.516,13.532-59.2-1.785-118.417-2.767-177.632-3.791-21.231-.368-42.476-.059-63.715-.059,0-.473,0-.947,0-1.419" transform="translate(14.308 0)" fill="#1a1818"/>
    <path id="Path_4" data-name="Path 4" d="M662.466,386.4c0,26.241-.059,52.484.025,78.725.039,11.98-1.961,14.244-13.767,13.863q-126.61-4.085-253.214-8.271-89.146-2.962-178.284-6.1c-50.434-1.751-100.872-3.449-151.291-5.572-3.784-.159-8.852-2.6-10.815-5.614-3.029-4.651,1.035-8.318,4.611-11.938,15.077-15.261,31.917-20.631,54.211-18.859,73.951,5.881,148.1,9.278,222.176,13.556,38.912,2.248,77.837,4.276,116.748,6.525Q524.7,446.856,596.51,451.2c7.731.456,15.478.7,23.2,1.269,9.952.734,13.454-1.97,13.67-11.977.416-19.24.437-38.49.7-57.733q.547-40.1,1.215-80.194c.117-7.293,3.373-11.125,9.242-11.1,10,.049,16.054,4.249,16.178,11.724.29,17.494.363,34.991.468,52.488.06,10.238.01,20.477.01,30.715l1.275,0" transform="translate(27.049 145.835)" fill="#1a1818"/>
    <path id="Path_5" data-name="Path 5" d="M243.739,393.293c-10.576-3.1-19.382-6.924-21.216-18.349-2.407-14.983-4.381-30.033-6.809-46.922-1.754,8.78-3.245,16.033-4.644,23.3-2.213,11.52-4.2,23.086-6.585,34.568-2.777,13.358-9.857,17.2-22.388,11.575-13.179-5.914-20.355-17.182-24.781-30.454-8.935-26.795-4.3-52.793,4.821-78.447a136.782,136.782,0,0,1,28.652-47.912c3.371-3.631,6.5-4.771,11.124-2.464,6.2,3.094,12.652,5.688,19.752,8.831C227.4,202.71,233.1,158.659,238.8,114.6c10.489.792,13.781,5.565,18.16,24.93q1.825-8.635,3.644-17.235c11.364,5.98,12.085,10.3,10.085,20.673-7.554,39.215-14.733,78.5-22.16,117.74-6.648,35.122-6.926,70.5-4.866,106.025.489,8.436.074,16.927.074,26.559m-59.795-13.625c13.131-21.351,35.6-99.955,34.121-118.651-23.017,11.256-53.929,78.888-34.121,118.651" transform="translate(76.308 57.34)" fill="#1a1818"/>
    <path id="Path_6" data-name="Path 6" d="M165.2,371.577c-13.469-1.224-21.548-11.139-24.657-22.43-2.369-8.6-3.16-17.643-4.617-26.495-.389-2.36-.645-4.741-2.377-7.149q-4.807,24.992-9.613,49.984c-.236,1.223-.531,2.438-.7,3.671-2.668,19.872-15.412,19.889-29.035,10.463C81.13,370.57,75.254,356.712,73,341.4c-6.351-43.146,8.286-80.026,34.678-113.117,6.228-7.809,8.439-7.536,19.116-1.245q-5.16,4.8-10.357,9.641l.78.942c3.382-1.3,6.686-2.887,10.163-3.844a17.3,17.3,0,0,1,19.74,8.379,5.428,5.428,0,0,1,.266,3.956c-.23.633-2.374,1.322-3.04.932-7.863-4.594-12.358,1.176-16.532,5.818-15.367,17.094-24.693,37.314-29.425,59.7-3.079,14.567-4.03,29.176.089,43.734a23.037,23.037,0,0,0,4.728,9.128c5.38-14.945,10.921-29.833,16.1-44.847q10.118-29.351,19.7-58.889c1.548-4.785,3.86-7.313,9.061-6.466,3.439.56,6.983.69,10.327,1.584,12.015,3.211,12.811,5.286,10.959,17.571-2.938,19.484-5.778,39.017-7.52,58.629-.78,8.792,1.154,17.833,1.95,26.754.348,3.9.933,7.776,1.428,11.815" transform="translate(35.788 111.261)" fill="#1a1818"/>
    <path id="Path_7" data-name="Path 7" d="M373.592,290.046c3.14-8.382,5.71-14.789,7.952-21.306,9.574-27.838,19.217-55.654,28.42-83.615,1.808-5.494,4.327-8.012,10.033-7.064,3.434.572,6.99.687,10.306,1.646,11.863,3.434,12.367,5.188,10.5,17.35-3.107,20.225-5.944,40.515-7.973,60.871-.728,7.29,1.179,14.85,1.959,22.279.488,4.635,1.119,9.253,1.707,14.06-12.271-1.5-22.175-10.528-24.957-23.219-2.375-10.837-3.776-21.889-6.713-33.027q-3.36,17.669-6.728,35.336c-1.509,7.844-2.8,15.742-4.7,23.492-2.344,9.586-7.647,13.011-17.136,10.414C359.853,302.769,351.672,290.1,346.892,275c-6.688-21.138-5.464-42.5.4-63.553,6.094-21.856,15.863-42,30.622-59.463,7.313-8.656,9.643-8.857,19.97-2.138q-5.154,4.839-10.354,9.721c18.873-6.507,23.39-5.523,32.7,8.154-1.413.789-3.4,2.563-4.046,2.162-8.618-5.314-13.248,1.362-17.646,6.3-15.3,17.169-24.487,37.471-29.039,59.924-3.064,15.107-3.818,30.186.947,45.131.725,2.272,1.6,4.5,3.142,8.812" transform="translate(171.302 72.608)" fill="#1a1818"/>
    <path id="Path_8" data-name="Path 8" d="M459.345,50.045c12.166,2.851,15.257,8.13,18.309,27.964,1.575-6.313,3.149-12.627,4.692-18.807,9.838,5.7,12.283,10.732,9.95,21.575-9.92,46.106-20.639,92.055-29.572,138.352-5.76,29.842-9.064,60.167-13.128,90.321-.758,5.62-.066,11.467.257,17.193.281,4.954-2.257,6.088-6.467,5.473-8.144-1.191-17.159-8.824-17.451-17.2-.65-18.642-2.189-37.633.417-55.944,9.637-67.684,20.805-135.15,31.428-202.694.306-1.95.956-3.847,1.565-6.235" transform="translate(212.593 25.04)" fill="#1a1818"/>
    <path id="Path_9" data-name="Path 9" d="M65.4,247.593c-12.684,27.782-21.429,56.158-25.482,85.613-3.256,23.667-4.7,47.609-6.156,71.478-.444,7.257-3.188,9.674-9.809,9.943-13.436.546-18.748-4.318-20.4-17.71C-1.929,352.375.527,307.685.681,263.037.7,256.9,4.2,254.99,9.206,258.708c2.806,2.086,4.639,5.478,7.305,8.77v-9.352c13.907.9,16.532,4.111,14.982,17.3a146.56,146.56,0,0,0-1.061,27.6c1.034-3.2,1.964-6.446,3.119-9.605,7.878-21.524,15.917-42.991,23.623-64.577,1.7-4.759,4.7-6.4,9.343-7,14.678-1.922,25.419,4.848,29.089,18.936,1.316,5.053,2.194,10.228,3.121,15.374,1.991,11.049-4.408,16.256-15.439,12.63-3.061-1.007-6.063-2.252-9.182-3.016-4.654-1.137-7.475-3.391-7.452-8.656.014-3.169-.812-6.339-1.259-9.509" transform="translate(0 110.834)" fill="#1a1818"/>
    <path id="Path_10" data-name="Path 10" d="M347.69,285.8c3.016,8.678,5.719,15.673.168,22.027-5.839,6.684-11.649,14.085-19.045,18.577-18.352,11.148-37.648,4.5-46.566-15.156-8.651-19.071-9.7-39.21-5.832-59.474,6.327-33.2,19.874-63.231,41.336-89.5,7.973-9.76,8.427-9.731,19.844-2.894l-10.429,9.895.788,1.074c2.639-1.16,5.209-2.516,7.928-3.443,11.179-3.814,19.683,1.352,20.987,13.08,1.41,12.7-1.683,24.642-6.81,36.353-7-1.844-9.431-4.9-5.9-11.758a28.3,28.3,0,0,0,2.653-12.288c.033-2.837-2-5.7-3.112-8.548-2.777,1.188-6.114,1.77-8.2,3.7a50.793,50.793,0,0,0-8.376,10.519c-15.818,25.477-25.212,53.205-26.979,83.137a59.332,59.332,0,0,0,3.833,23.378c5.766,15.574,17.725,17,28.037,3.968,3.556-4.494,6.551-9.431,9.806-14.163,1.524-2.214,3.059-4.422,5.874-8.489" transform="translate(137.234 77.333)" fill="#1a1818"/>
    <path id="Path_11" data-name="Path 11" d="M260.8,191.794c.258-2.86.518-5.718.86-9.512,3.179,1.383,6.1,2.5,8.885,3.9,4.416,2.216,5.877,4.951,5.007,10.684C269.9,234.1,264.663,271.41,260.1,308.794c-1.029,8.435,1.121,17.266,1.886,25.908.276,3.116.782,6.213,1.373,10.791-10.666-5.026-19.509-9.275-23.039-20.378-5.71-17.953-6.923-36.289-5.016-54.791,2.789-27.045,6.144-54.037,9.562-81.011.362-2.857,2.758-5.455,4.21-8.174,2.959,2.249,6.057,4.342,8.795,6.831.915.833.912,2.675,1.328,4.057l1.595-.233" transform="translate(117.317 90.632)" fill="#1a1818"/>
    <path id="Path_12" data-name="Path 12" d="M265.185,194.411c-9.491,1.152-15.068-2.282-16.685-12.01a89.286,89.286,0,0,1-1.046-18.618c.491-10.661,13.884-18.987,23.707-14.679,2,.878,3.863,4.509,3.878,6.884.022,3.332-1.853,6.65-2.722,10.024-2.4,9.328-4.7,18.682-7.133,28.4" transform="translate(123.764 74.024)" fill="#1a1818"/>
  </g>
</svg>
